HIERARCHY
ROOT Hips
{
	OFFSET 0.000000 0.000000 0.000000
	CHANNELS 6 Xposition Yposition Zposition Zrotation Yrotation Xrotation 
	JOINT LHipJoint
	{
		OFFSET 0.000000 0.000000 0.000000
		CHANNELS 3 Zrotation Yrotation Xrotation
		JOINT LeftUpLeg
		{
			OFFSET 1.363060 -1.794630 0.839290
			CHANNELS 3 Zrotation Yrotation Xrotation
			JOINT LeftLeg
			{
				OFFSET 2.448110 -6.726130 0.000000
				CHANNELS 3 Zrotation Yrotation Xrotation
				JOINT LeftFoot
				{
					OFFSET 2.562200 -7.039590 0.000000
					CHANNELS 3 Zrotation Yrotation Xrotation
					JOINT LeftToeBase
					{
						OFFSET 0.157640 -0.433110 2.322550
						CHANNELS 3 Zrotation Yrotation Xrotation
						End Site
						{
							OFFSET 0.000000 0.000000 0.000000
						}
					}
				}
			}
		}
	}
	JOINT RHipJoint
	{
		OFFSET 0.000000 0.000000 0.000000
		CHANNELS 3 Zrotation Yrotation Xrotation
		JOINT RightUpLeg
		{
			OFFSET -1.305520 -1.794630 0.839290
			CHANNELS 3 Zrotation Yrotation Xrotation
			JOINT RightLeg
			{
				OFFSET -2.542530 -6.985550 0.000000
				CHANNELS 3 Zrotation Yrotation Xrotation
				JOINT RightFoot
				{
					OFFSET -2.568260 -7.056230 0.000000
					CHANNELS 3 Zrotation Yrotation Xrotation
					JOINT RightToeBase
					{
						OFFSET -0.164730 -0.452590 2.363150
						CHANNELS 3 Zrotation Yrotation Xrotation
						End Site
						{
							OFFSET 0.000000 0.000000 0.000000
						}
					}
				}
			}
		}
	}
	JOINT LowerBack
	{
		OFFSET 0.000000 0.000000 0.000000
		CHANNELS 3 Zrotation Yrotation Xrotation
		JOINT Spine
		{
			OFFSET 0.028270 2.035590 -0.193380
			CHANNELS 3 Zrotation Yrotation Xrotation
			JOINT Spine1
			{
				OFFSET 0.056720 2.048850 -0.042750
				CHANNELS 3 Zrotation Yrotation Xrotation
				JOINT Neck
				{
					OFFSET 0.000000 0.000000 0.000000
					CHANNELS 3 Zrotation Yrotation Xrotation
					JOINT Neck1
					{
						OFFSET -0.054170 1.746240 0.172020
						CHANNELS 3 Zrotation Yrotation Xrotation
						JOINT Head
						{
							OFFSET 0.104070 1.761360 -0.123970
							CHANNELS 3 Zrotation Yrotation Xrotation
							End Site
							{
								OFFSET 0.000000 0.000000 0.000000
							}
						}
					}
				}
				JOINT LeftShoulder
				{
					OFFSET 0.000000 0.000000 0.000000
					CHANNELS 3 Zrotation Yrotation Xrotation
					JOINT LeftArm
					{
						OFFSET 3.362410 1.200890 -0.311210
						CHANNELS 3 Zrotation Yrotation Xrotation
						JOINT LeftForeArm
						{
							OFFSET 4.983000 -0.000000 -0.000000
							CHANNELS 3 Zrotation Yrotation Xrotation
							JOINT LeftHand
							{
								OFFSET 3.483560 -0.000000 -0.000000
								CHANNELS 3 Zrotation Yrotation Xrotation
								JOINT LeftFingerBase
								{
									OFFSET 0.000000 0.000000 0.000000
									CHANNELS 3 Zrotation Yrotation Xrotation
									JOINT LeftHandIndex1
									{
										OFFSET 0.715260 -0.000000 -0.000000
										CHANNELS 3 Zrotation Yrotation Xrotation
										End Site
										{
											OFFSET 0.000000 0.000000 0.000000
										}
									}
								}
								JOINT LThumb
								{
									OFFSET 0.000000 0.000000 0.000000
									CHANNELS 3 Zrotation Yrotation Xrotation
									End Site
									{
										OFFSET 0.000000 0.000000 0.000000
									}
								}
							}
						}
					}
				}
				JOINT RightShoulder
				{
					OFFSET 0.000000 0.000000 0.000000
					CHANNELS 3 Zrotation Yrotation Xrotation
					JOINT RightArm
					{
						OFFSET -3.136600 1.374050 -0.404650
						CHANNELS 3 Zrotation Yrotation Xrotation
						JOINT RightForeArm
						{
							OFFSET -5.241900 -0.000000 -0.000000
							CHANNELS 3 Zrotation Yrotation Xrotation
							JOINT RightHand
							{
								OFFSET -3.444170 -0.000000 -0.000000
								CHANNELS 3 Zrotation Yrotation Xrotation
								JOINT RightFingerBase
								{
									OFFSET 0.000000 0.000000 0.000000
									CHANNELS 3 Zrotation Yrotation Xrotation
									JOINT RightHandIndex1
									{
										OFFSET -0.622530 -0.000000 -0.000000
										CHANNELS 3 Zrotation Yrotation Xrotation
										End Site
										{
											OFFSET 0.000000 0.000000 0.000000
										}
									}
								}
								JOINT RThumb
								{
									OFFSET 0.000000 0.000000 0.000000
									CHANNELS 3 Zrotation Yrotation Xrotation
									End Site
									{
										OFFSET 0.000000 0.000000 0.000000
									}
								}
							}
						}
					}
				}
			}
		}
	}
}
MOTION
Frames: 7
Frame Time: 0.008333
3.393267 17.191392 0.954441 -176.798695 -71.508729 -173.000460 -11.897704 1.659301 -1.238534 -3.378986 27.749222 -13.140104 -2.787978 -1.229234 -0.965085 0.954225 8.198035 0.581791 1.188400 -0.000000 -34.993900 9.075150 -2.090343 4.253160 2.190534 3.645613 -12.554237 2.850312 1.333170 -1.317032 0.597648 4.263729 1.988289 0.365601 0.000000 -46.639700 1.510998 0.517120 -4.597097 -0.511772 0.260131 -3.762852 -6.576296 0.522170 -1.210507 7.103832 -6.014063 0.547829 -4.099770 -0.390189 2.211641 0.000000 0.000000 0.000000 11.964664 8.480260 -2.954114 -83.202096 -22.296244 16.787863 -178.899597 -50.096731 179.913194 5.288288 -8.109417 -0.437386 -0.113380 1.243610 -0.000000 0.000000 0.000000 0.000000 0.000000 0.000000 0.000000 0.855187 -3.246289 -4.444954 93.034790 27.601485 37.036523 -179.235192 59.383006 179.857362 -9.602907 15.214212 -1.409431 0.158314 -1.197865 -0.000000 0.000000 0.000000 0.000000 0.000000 0.000000 0.000000 
3.396108 17.192001 0.956564 -176.851249 -71.412610 -172.964616 -11.902286 1.660109 -1.238842 -3.397812 27.795715 -13.168391 -2.789052 -1.230509 -0.896823 0.960486 8.249484 0.553323 1.191100 -0.000000 -34.963100 9.069009 -2.107276 4.287828 2.162105 3.712524 -12.552612 2.851838 1.337095 -1.405464 0.606756 4.320019 2.076567 0.380400 0.000000 -46.623800 1.613976 0.573367 -4.627957 -0.540446 0.300456 -3.772160 -6.769738 0.571835 -1.241441 7.124395 -5.976929 0.663824 -4.053069 -0.388334 2.244239 0.000000 0.000000 0.000000 11.835889 8.452763 -3.015836 -81.852977 -24.003561 16.208046 -178.767483 -50.865403 179.914847 5.252266 -7.967442 -0.428080 -0.120026 1.236313 -0.000000 0.000000 0.000000 0.000000 0.000000 0.000000 0.000000 0.807769 -3.225510 -4.402162 93.061073 27.519393 37.017689 -179.158049 59.381940 179.855434 -9.629321 15.194079 -1.410621 0.152551 -1.195656 -0.000000 0.000000 0.000000 0.000000 0.000000 0.000000 0.000000 
3.400735 17.192756 0.958606 -176.916263 -71.349969 -172.926648 -11.906089 1.660327 -1.234847 -3.417586 27.818575 -13.196761 -2.788568 -1.231910 -0.823477 0.966054 8.297999 0.531810 1.194600 0.000000 -34.929400 9.063923 -2.127090 4.320607 2.132971 3.764722 -12.538386 2.851531 1.340570 -1.503363 0.614879 4.358900 2.170022 0.391200 0.000000 -46.608001 1.721755 0.640449 -4.660610 -0.579446 0.349241 -3.785216 -7.013414 0.631168 -1.292228 7.183322 -5.925212 0.822270 -3.992714 -0.386046 2.288821 0.000000 0.000000 0.000000 11.649950 8.351449 -3.074583 -80.173612 -26.130890 15.496949 -178.651427 -51.900613 179.915815 5.263377 -7.798231 -0.421402 -0.128198 1.226068 -0.000000 0.000000 0.000000 0.000000 0.000000 0.000000 0.000000 0.779966 -3.181281 -4.344419 93.052454 27.398986 36.936158 -179.061787 59.362155 179.852981 -9.667589 15.165725 -1.412634 0.145571 -1.192844 -0.000000 0.000000 0.000000 0.000000 0.000000 0.000000 0.000000 
3.407331 17.193619 0.960589 -176.991865 -71.326096 -172.888870 -11.908404 1.659956 -1.226705 -3.437782 27.813369 -13.224974 -2.786350 -1.232931 -0.747441 0.970712 8.340735 0.517805 1.198701 -0.000000 -34.894700 9.060603 -2.147913 4.348947 2.104032 3.799016 -12.510593 2.849163 1.343598 -1.608408 0.621704 4.376157 2.265866 0.396800 0.000000 -46.592600 1.825777 0.712110 -4.692682 -0.628468 0.401104 -3.802522 -7.299809 0.693722 -1.366396 7.287721 -5.854651 1.020820 -3.917881 -0.383289 2.344876 0.000000 0.000000 0.000000 11.412802 8.150005 -3.115406 -78.149228 -28.642151 14.628559 -178.583185 -53.224544 179.915507 5.344127 -7.620647 -0.419444 -0.136639 1.213108 -0.000000 0.000000 0.000000 0.000000 0.000000 0.000000 0.000000 0.777786 -3.102094 -4.273533 92.998014 27.241180 36.787115 -178.948472 59.319289 179.850074 -9.718080 15.129243 -1.415465 0.137614 -1.189436 -0.000000 0.000000 0.000000 0.000000 0.000000 0.000000 0.000000 
3.415561 17.194679 0.962512 -177.070653 -71.344469 -172.851969 -11.908722 1.659347 -1.213160 -3.458906 27.771399 -13.252397 -2.781766 -1.233553 -0.677469 0.974916 8.380774 0.515469 1.204600 -0.000000 -34.857200 9.059414 -2.168112 4.371462 2.076602 3.815455 -12.472963 2.844528 1.346098 -1.715591 0.626438 4.365155 2.361955 0.395700 0.000000 -46.577400 1.918674 0.781742 -4.724326 -0.687113 0.450112 -3.820840 -7.622145 0.753143 -1.449228 7.446361 -5.779234 1.238071 -3.829212 -0.379900 2.406472 0.000000 0.000000 0.000000 11.101590 7.874161 -3.123300 -75.755267 -31.539203 13.600405 -178.583819 -54.878438 179.913247 5.534150 -7.407152 -0.423598 -0.145490 1.196077 -0.000000 0.000000 0.000000 0.000000 0.000000 0.000000 0.000000 0.821027 -2.997433 -4.197007 92.890553 27.069013 36.587364 -178.827341 59.256261 179.846938 -9.782327 15.086444 -1.419614 0.129577 -1.185446 -0.000000 0.000000 0.000000 0.000000 0.000000 0.000000 0.000000 
3.425273 17.195919 0.964497 -177.144719 -71.405243 -172.819066 -11.906494 1.658521 -1.194730 -3.481087 27.691525 -13.281691 -2.775044 -1.233382 -0.617937 0.978537 8.415604 0.525591 1.212100 -0.000001 -34.819300 9.060758 -2.185346 4.385954 2.053158 3.811948 -12.428960 2.838032 1.348465 -1.823053 0.628781 4.324579 2.457296 0.387300 -0.000000 -46.562900 1.990258 0.840957 -4.753233 -0.753161 0.489407 -3.839090 -7.961379 0.801453 -1.537477 7.660698 -5.703315 1.458551 -3.728010 -0.375839 2.469385 0.000000 0.000000 0.000000 10.727406 7.526545 -3.086949 -72.998826 -34.748002 12.382142 -178.678417 -56.883239 179.908536 5.849449 -7.174665 -0.434853 -0.152614 1.175845 -0.000000 0.000000 0.000000 0.000000 0.000000 0.000000 0.000000 0.916143 -2.872745 -4.120764 92.723217 26.898124 36.352762 -178.705335 59.176828 179.843765 -9.859855 15.039875 -1.425374 0.122059 -1.180841 -0.000000 0.000000 0.000000 0.000000 0.000000 0.000000 0.000000 
3.436250 17.197240 0.966642 -177.203878 -71.508563 -172.796568 -11.901242 1.656991 -1.174865 -3.502817 27.584024 -13.316240 -2.767778 -1.231911 -0.567822 0.980049 8.431961 0.546207 1.218900 -0.000000 -34.784300 9.065540 -2.197656 4.388673 2.037141 3.780340 -12.377686 2.830658 1.351319 -1.932730 0.629400 4.260594 2.551266 0.373100 0.000000 -46.548899 2.020909 0.882702 -4.773436 -0.822639 0.515225 -3.862952 -8.280723 0.832061 -1.658973 7.924868 -5.609440 1.689764 -3.616422 -0.371416 2.535961 0.000000 0.000000 0.000000 10.383560 7.033891 -3.011845 -69.977002 -38.028505 10.896203 -178.893142 -59.212511 179.901204 6.279131 -6.950630 -0.452709 -0.153694 1.153738 -0.000000 0.000000 0.000000 0.000000 0.000000 0.000000 0.000000 1.045840 -2.719711 -4.041760 92.483592 26.710943 36.070949 -178.581882 59.075212 179.840647 -9.940444 14.995026 -1.431642 0.114587 -1.175717 -0.000000 0.000000 0.000000 0.000000 0.000000 0.000000 0.000000 
